<svg width="201" height="30" viewBox="0 0 201 30" fill="none" xmlns="http://www.w3.org/2000/svg">
<path d="M26.4629 25.3828C26.4629 24.0234 26.6387 22.6523 26.9902 21.2695C27.3652 19.8633 27.8223 18.4805 28.3613 17.1211C28.9238 15.7617 29.5215 14.4492 30.1543 13.1836C30.7871 11.8945 31.3848 10.6875 31.9473 9.5625V9.10547C31.6895 9.38672 31.2793 9.83203 30.7168 10.4414C30.1777 11.0273 29.5566 11.6953 28.8535 12.4453C28.1738 13.1953 27.4473 13.9922 26.6738 14.8359C25.9238 15.6562 25.1973 16.4414 24.4941 17.1914C23.8145 17.9414 23.2051 18.6211 22.666 19.2305C22.127 19.8164 21.7285 20.25 21.4707 20.5312C21.2129 20.8125 20.9668 21.2344 20.7324 21.7969C20.498 22.3359 20.2402 22.8867 19.959 23.4492C19.6777 24.0117 19.3613 24.5039 19.0098 24.9258C18.6816 25.3477 18.3066 25.5586 17.8848 25.5586C17.5332 25.5586 17.252 25.5234 17.041 25.4531C16.8535 25.3828 16.7129 25.2773 16.6191 25.1367C16.5254 24.9727 16.4668 24.7734 16.4434 24.5391C16.4199 24.3047 16.4082 24.0234 16.4082 23.6953C16.4082 21.9609 16.6543 20.2852 17.1465 18.668C17.6621 17.0273 18.2012 15.3633 18.7637 13.6758V13.2188C18.7168 13.2656 18.6348 13.3477 18.5176 13.4648C18.4004 13.5586 18.3301 13.6289 18.3066 13.6758C17.7441 14.5195 17.1699 15.4336 16.584 16.418C15.998 17.3789 15.3887 18.3398 14.7559 19.3008C14.123 20.2383 13.4434 21.1406 12.7168 22.0078C11.9902 22.875 11.2051 23.6484 10.3613 24.3281C9.51758 24.9844 8.5918 25.5117 7.58398 25.9102C6.59961 26.3086 5.50977 26.5078 4.31445 26.5078C4.05664 26.5078 3.70508 26.4961 3.25977 26.4727C2.83789 26.4492 2.41602 26.3789 1.99414 26.2617C1.5957 26.1445 1.24414 25.957 0.939453 25.6992C0.658203 25.4414 0.517578 25.0781 0.517578 24.6094C0.517578 24.4219 0.623047 24.1875 0.833984 23.9062C1.06836 23.6016 1.26758 23.3906 1.43164 23.2734C1.75977 23.8125 2.0293 24.1758 2.24023 24.3633C2.47461 24.5273 2.80273 24.6094 3.22461 24.6094C3.92773 24.6094 4.66602 24.5039 5.43945 24.293C6.23633 24.0586 6.99805 23.7539 7.72461 23.3789C8.47461 23.0039 9.17773 22.5703 9.83398 22.0781C10.4902 21.5859 11.041 21.0703 11.4863 20.5312C11.8379 20.0625 12.2598 19.4648 12.752 18.7383C13.2676 17.9883 13.8066 17.1797 14.3691 16.3125C14.9551 15.4219 15.5527 14.5195 16.1621 13.6055C16.7715 12.6914 17.3574 11.8242 17.9199 11.0039C18.5059 10.1602 19.0449 9.41016 19.5371 8.75391C20.0293 8.09766 20.4512 7.60547 20.8027 7.27734C21.1309 7.27734 21.377 7.33594 21.541 7.45312C21.7051 7.54688 21.8223 7.6875 21.8926 7.875C21.9629 8.0625 21.998 8.28516 21.998 8.54297C21.998 8.80078 21.998 9.07031 21.998 9.35156C21.998 10.3359 21.8457 11.2969 21.541 12.2344C21.2598 13.1719 20.9434 14.0859 20.5918 14.9766C20.2402 15.8438 19.9121 16.6992 19.6074 17.543C19.3262 18.3867 19.1855 19.2188 19.1855 20.0391C19.1855 20.0859 19.1855 20.168 19.1855 20.2852C19.209 20.4023 19.2207 20.4844 19.2207 20.5312C21.4238 18.0938 23.3223 15.9844 24.916 14.2031C26.5098 12.4219 27.8574 10.9102 28.959 9.66797C30.084 8.40234 30.998 7.38281 31.7012 6.60938C32.4043 5.8125 32.9668 5.20312 33.3887 4.78125C33.8105 4.33594 34.127 4.03125 34.3379 3.86719C34.5723 3.70312 34.7598 3.62109 34.9004 3.62109C35.1348 3.62109 35.3105 3.69141 35.4277 3.83203C35.5449 3.97266 35.6152 4.13672 35.6387 4.32422C35.6855 4.51172 35.6973 4.71094 35.6738 4.92188C35.6738 5.13281 35.6738 5.30859 35.6738 5.44922C35.6738 6.43359 35.4863 7.44141 35.1113 8.47266C34.7598 9.48047 34.3027 10.5234 33.7402 11.6016C33.2012 12.6562 32.6035 13.7344 31.9473 14.8359C31.3145 15.9141 30.7168 17.0273 30.1543 18.1758C29.6152 19.3242 29.1582 20.4961 28.7832 21.6914C28.4316 22.8633 28.2559 24.0703 28.2559 25.3125C28.2559 25.9453 28.2676 26.4141 28.291 26.7188C28.3145 27 28.3848 27.2344 28.502 27.4219C28.6191 27.6328 28.8066 27.8438 29.0645 28.0547C29.3223 28.2891 29.6855 28.6523 30.1543 29.1445C29.6152 29.4492 29.0879 29.5664 28.5723 29.4961C28.0801 29.4492 27.6465 29.25 27.2715 28.8984C26.9199 28.5469 26.6621 28.0664 26.498 27.457C26.334 26.8477 26.3223 26.1562 26.4629 25.3828Z" fill="black"/>
<path d="M33.5293 24.7148C33.5293 24.3867 33.5645 24.1055 33.6348 23.8711C33.7051 23.6133 33.834 23.2852 34.0215 22.8867C34.1855 22.6523 34.4785 22.207 34.9004 21.5508C35.3457 20.8945 35.8027 20.2031 36.2715 19.4766C36.7637 18.75 37.2207 18.0703 37.6426 17.4375C38.0879 16.7812 38.3926 16.3242 38.5566 16.0664C38.7676 15.7617 38.9316 15.5977 39.0488 15.5742C39.166 15.5508 39.3887 15.5391 39.7168 15.5391C39.9277 15.5391 40.1504 15.5508 40.3848 15.5742C40.6426 15.5977 40.8066 15.7617 40.877 16.0664C40.5488 16.8633 40.1035 17.625 39.541 18.3516C39.002 19.0547 38.4629 19.7578 37.9238 20.4609C37.4082 21.1641 36.9512 21.8906 36.5527 22.6406C36.1543 23.3672 35.9551 24.1523 35.9551 24.9961C36.0488 24.9961 36.1895 25.0078 36.377 25.0312C36.5879 25.0547 36.8105 25.0781 37.0449 25.1016C37.2793 25.125 37.4902 25.1484 37.6777 25.1719C37.8887 25.1953 38.041 25.1953 38.1348 25.1719C38.2754 25.1484 38.5098 25.1016 38.8379 25.0312C39.1895 24.9375 39.5527 24.8438 39.9277 24.75C40.3262 24.6562 40.7012 24.5625 41.0527 24.4688C41.4043 24.375 41.6504 24.3047 41.791 24.2578C41.791 24.3047 41.791 24.3867 41.791 24.5039C41.8145 24.5977 41.8262 24.668 41.8262 24.7148C41.8262 25.1836 41.6035 25.5703 41.1582 25.875C40.7363 26.1797 40.2324 26.4258 39.6465 26.6133C39.084 26.7773 38.498 26.8945 37.8887 26.9648C37.3027 27.0117 36.8457 27.0352 36.5176 27.0352C36.166 27.0352 35.8027 27 35.4277 26.9297C35.0762 26.8359 34.7598 26.6953 34.4785 26.5078C34.1973 26.3203 33.9629 26.0859 33.7754 25.8047C33.6113 25.5 33.5293 25.1367 33.5293 24.7148ZM43.7598 4.11328C44.0645 4.11328 44.3457 4.125 44.6035 4.14844C44.8613 4.17188 45.084 4.23047 45.2715 4.32422C45.459 4.41797 45.6113 4.55859 45.7285 4.74609C45.8457 4.93359 45.9043 5.19141 45.9043 5.51953C45.9043 5.66016 45.9043 5.8125 45.9043 5.97656C45.9043 6.14062 45.8809 6.30469 45.834 6.46875C45.8105 6.60938 45.752 6.73828 45.6582 6.85547C45.5645 6.94922 45.4121 6.99609 45.2012 6.99609C44.873 6.99609 44.6035 6.87891 44.3926 6.64453C44.2051 6.41016 44.0645 6.14062 43.9707 5.83594C43.877 5.50781 43.8184 5.17969 43.7949 4.85156C43.7715 4.52344 43.7598 4.27734 43.7598 4.11328Z" fill="black"/>
<path d="M42.1426 24.7148C42.2363 23.7539 42.4941 22.875 42.916 22.0781C43.3613 21.2578 43.877 20.4844 44.4629 19.7578C45.0723 19.0078 45.6934 18.3047 46.3262 17.6484C46.9824 16.9688 47.5684 16.2891 48.084 15.6094C48.4824 15.6094 48.7402 15.7031 48.8574 15.8906C48.998 16.0547 49.0684 16.2656 49.0684 16.5234C48.8809 16.7344 48.5879 17.1211 48.1895 17.6836C47.791 18.2227 47.3809 18.8086 46.959 19.4414C46.5605 20.0742 46.1973 20.6719 45.8691 21.2344C45.5645 21.7969 45.3887 22.1953 45.3418 22.4297C45.1543 23.1328 45.1543 23.5781 45.3418 23.7656C45.5527 23.9297 45.8809 23.9297 46.3262 23.7656C46.7949 23.5781 47.3457 23.2617 47.9785 22.8164C48.6113 22.3477 49.2559 21.832 49.9121 21.2695C50.5918 20.707 51.248 20.1211 51.8809 19.5117C52.5137 18.9023 53.0645 18.3633 53.5332 17.8945H55.0801C55.0801 18.293 55.0215 18.6797 54.9043 19.0547C54.7871 19.4062 54.6582 19.7578 54.5176 20.1094C54.377 20.4609 54.248 20.8125 54.1309 21.1641C54.0137 21.5156 53.9551 21.8789 53.9551 22.2539C53.9551 22.793 54.1191 23.1211 54.4473 23.2383C54.7988 23.3555 55.1973 23.4141 55.6426 23.4141C56.252 23.4141 56.8848 23.2969 57.541 23.0625C58.2207 22.8047 58.8418 22.4648 59.4043 22.043C59.9668 21.5977 60.4238 21.0938 60.7754 20.5312C61.1504 19.9453 61.3379 19.3125 61.3379 18.6328C61.3379 18.0234 61.2441 17.4727 61.0566 16.9805C60.8926 16.4648 60.8105 15.9023 60.8105 15.293C60.8105 14.5664 61.209 14.2031 62.0059 14.2031C62.3574 14.2031 62.6621 14.3555 62.9199 14.6602C63.1777 14.9648 63.3887 15.3281 63.5527 15.75C63.7402 16.1719 63.8691 16.6055 63.9395 17.0508C64.0332 17.4961 64.0801 17.8594 64.0801 18.1406C64.0801 19.3594 63.7871 20.4375 63.2012 21.375C62.6152 22.3125 61.8652 23.0977 60.9512 23.7305C60.0371 24.3633 59.0176 24.8438 57.8926 25.1719C56.791 25.5 55.7129 25.6641 54.6582 25.6641C53.7676 25.6641 53.0645 25.3477 52.5488 24.7148C52.0332 24.0586 51.7637 23.2969 51.7402 22.4297C51.0605 22.6406 50.4395 23.0039 49.877 23.5195C49.3145 24.0117 48.752 24.5273 48.1895 25.0664C47.627 25.582 47.041 26.0391 46.4316 26.4375C45.8223 26.8359 45.1543 27.0352 44.4277 27.0352C44.2402 27.0352 44.0059 26.9531 43.7246 26.7891C43.4668 26.625 43.209 26.4258 42.9512 26.1914C42.7168 25.957 42.5176 25.7109 42.3535 25.4531C42.1895 25.1719 42.1191 24.9258 42.1426 24.7148Z" fill="black"/>
<path d="M65.5918 24.7148C65.8027 23.3789 66.2012 22.1484 66.7871 21.0234C67.373 19.8984 68.041 18.9258 68.791 18.1055C69.5645 17.2617 70.3965 16.5703 71.2871 16.0312C72.1777 15.4922 73.0449 15.1523 73.8887 15.0117C74.7324 14.8477 75.5059 14.8828 76.209 15.1172C76.9355 15.3516 77.5215 15.8203 77.9668 16.5234C77.9668 17.0625 77.8379 17.5781 77.5801 18.0703C77.3457 18.5625 77.0762 19.0547 76.7715 19.5469C76.4902 20.0391 76.2207 20.543 75.9629 21.0586C75.7285 21.5742 75.6113 22.125 75.6113 22.7109C75.6113 23.3203 75.7402 23.8125 75.998 24.1875C76.2793 24.5391 76.7598 24.7148 77.4395 24.7148C78.002 24.7148 78.541 24.6328 79.0566 24.4688C79.5957 24.3047 80.1348 24.2227 80.6738 24.2227C80.7676 24.2227 80.9199 24.2344 81.1309 24.2578C81.3652 24.2578 81.5176 24.2578 81.5879 24.2578C81.3066 24.6562 80.9434 24.9961 80.498 25.2773C80.0527 25.5586 79.584 25.8047 79.0918 26.0156C78.5996 26.2031 78.084 26.3438 77.5449 26.4375C77.0293 26.5312 76.5488 26.5781 76.1035 26.5781C75.6816 26.5781 75.3066 26.4844 74.9785 26.2969C74.6504 26.1094 74.3691 25.8633 74.1348 25.5586C73.9004 25.2539 73.7129 24.9141 73.5723 24.5391C73.4551 24.1406 73.3965 23.7539 73.3965 23.3789C73.0449 23.7773 72.6582 24.1992 72.2363 24.6445C71.8379 25.0664 71.4043 25.4531 70.9355 25.8047C70.4902 26.1562 69.998 26.4492 69.459 26.6836C68.9434 26.918 68.4043 27.0352 67.8418 27.0352C67.2324 27.0352 66.7051 26.8125 66.2598 26.3672C65.8145 25.8984 65.5918 25.3477 65.5918 24.7148ZM67.9121 23.625C67.9121 23.8125 67.9121 24.0234 67.9121 24.2578C67.9355 24.4922 68.0879 24.6445 68.3691 24.7148C68.9551 24.5742 69.623 24.2695 70.373 23.8008C71.123 23.3086 71.8262 22.7461 72.4824 22.1133C73.1387 21.457 73.6895 20.7656 74.1348 20.0391C74.5801 19.2891 74.8027 18.5742 74.8027 17.8945C74.8027 17.8477 74.791 17.7773 74.7676 17.6836C74.7676 17.5664 74.7676 17.4844 74.7676 17.4375C73.9707 17.4375 73.1621 17.6016 72.3418 17.9297C71.5215 18.2578 70.7832 18.7148 70.127 19.3008C69.4707 19.8633 68.9316 20.5195 68.5098 21.2695C68.1113 22.0195 67.9121 22.8047 67.9121 23.625Z" fill="black"/>
<path d="M98.3223 19.2305C98.3223 18.8555 98.3457 18.4453 98.3926 18C98.4395 17.5312 98.5449 17.1094 98.709 16.7344C98.873 16.3594 99.1074 16.043 99.4121 15.7852C99.7402 15.5273 100.174 15.3984 100.713 15.3984C100.713 15.7031 100.678 15.9844 100.607 16.2422C100.561 16.5 100.49 16.7578 100.396 17.0156C100.326 17.2734 100.256 17.5547 100.186 17.8594C100.139 18.1406 100.115 18.457 100.115 18.8086C100.115 19.6992 100.232 20.5312 100.467 21.3047C100.701 22.0781 101.053 22.7578 101.521 23.3438C102.014 23.9062 102.611 24.3516 103.314 24.6797C104.041 25.0078 104.896 25.1719 105.881 25.1719C106.303 25.1719 106.818 25.0781 107.428 24.8906C108.037 24.7031 108.646 24.4805 109.256 24.2227C109.865 23.9648 110.428 23.707 110.943 23.4492C111.459 23.1914 111.822 23.0039 112.033 22.8867C112.549 22.6055 112.959 22.2188 113.264 21.7266C113.568 21.2109 113.803 20.6602 113.967 20.0742C114.131 19.4648 114.236 18.8555 114.283 18.2461C114.33 17.6133 114.354 17.0508 114.354 16.5586C114.354 15.7617 114.271 14.9883 114.107 14.2383C113.967 13.4648 113.803 12.7031 113.615 11.9531C113.451 11.2031 113.287 10.4531 113.123 9.70312C112.982 8.95312 112.912 8.19141 112.912 7.41797C113.17 6.69141 113.568 6.03516 114.107 5.44922C114.67 4.83984 115.303 4.32422 116.006 3.90234C116.732 3.45703 117.506 3.10547 118.326 2.84766C119.146 2.58984 119.943 2.4375 120.717 2.39062C121.35 2.55469 121.83 2.76562 122.158 3.02344C122.486 3.25781 122.709 3.51562 122.826 3.79688C122.967 4.07812 123.002 4.34766 122.932 4.60547C122.861 4.86328 122.744 5.09766 122.58 5.30859C122.322 4.74609 121.982 4.37109 121.561 4.18359C121.162 3.99609 120.705 3.9375 120.189 4.00781C119.697 4.07812 119.193 4.25391 118.678 4.53516C118.162 4.81641 117.67 5.13281 117.201 5.48438C116.732 5.83594 116.322 6.21094 115.971 6.60938C115.619 6.98438 115.361 7.3125 115.197 7.59375C115.197 8.29688 115.268 8.98828 115.408 9.66797C115.572 10.3242 115.736 10.9922 115.9 11.6719C116.088 12.3281 116.252 12.9961 116.393 13.6758C116.557 14.332 116.639 15.0117 116.639 15.7148C116.639 17.4023 116.369 18.9492 115.83 20.3555C115.314 21.7383 114.553 22.9336 113.545 23.9414C112.561 24.9258 111.354 25.6875 109.924 26.2266C108.518 26.7656 106.936 27.0352 105.178 27.0352C104.076 27.0352 103.092 26.8125 102.225 26.3672C101.381 25.9219 100.666 25.3359 100.08 24.6094C99.5176 23.8594 99.084 23.0156 98.7793 22.0781C98.4746 21.1406 98.3223 20.1914 98.3223 19.2305Z" fill="black"/>
<path d="M131.299 27.0352C130.713 27.1289 130.174 27.0352 129.682 26.7539C129.213 26.4492 128.838 26.0625 128.557 25.5938C128.275 25.1016 128.111 24.5742 128.064 24.0117C128.018 23.4258 128.135 22.8984 128.416 22.4297C129.447 21.0938 130.15 20.0391 130.525 19.2656C130.9 18.4688 131.029 17.918 130.912 17.6133C130.818 17.2852 130.525 17.1562 130.033 17.2266C129.564 17.2734 128.99 17.4844 128.311 17.8594C127.631 18.2109 126.893 18.6797 126.096 19.2656C125.322 19.8516 124.596 20.4961 123.916 21.1992C123.236 21.9023 122.639 22.6406 122.123 23.4141C121.631 24.1641 121.314 24.9023 121.174 25.6289C120.939 25.7695 120.74 25.8867 120.576 25.9805C120.412 26.0508 120.225 26.0859 120.014 26.0859C119.662 26.0859 119.451 25.9688 119.381 25.7344C119.311 25.5 119.275 25.2539 119.275 24.9961C119.275 24.4102 119.451 23.8125 119.803 23.2031C120.178 22.5703 120.6 21.9844 121.068 21.4453C121.561 20.8828 122.029 20.3789 122.475 19.9336C122.92 19.4648 123.236 19.0898 123.424 18.8086C124.01 17.8477 124.596 16.8164 125.182 15.7148C125.768 14.5898 126.354 13.4531 126.939 12.3047C127.525 11.1328 128.123 9.98438 128.732 8.85938C129.365 7.71094 130.021 6.62109 130.701 5.58984C130.818 5.40234 130.912 5.27344 130.982 5.20312C131.076 5.13281 131.205 5.09766 131.369 5.09766C131.557 5.09766 131.697 5.13281 131.791 5.20312C131.885 5.27344 131.979 5.40234 132.072 5.58984C132.072 5.68359 132.049 5.83594 132.002 6.04688C131.979 6.25781 131.943 6.49219 131.896 6.75C131.873 6.98438 131.826 7.20703 131.756 7.41797C131.709 7.62891 131.674 7.76953 131.65 7.83984C131.51 8.12109 131.275 8.61328 130.947 9.31641C130.619 10.0195 130.256 10.7695 129.857 11.5664C129.482 12.3633 129.119 13.1484 128.768 13.9219C128.416 14.6719 128.158 15.2344 127.994 15.6094C128.346 15.375 128.662 15.1992 128.943 15.082C129.225 14.9414 129.494 14.8477 129.752 14.8008C130.033 14.7305 130.314 14.6953 130.596 14.6953C130.9 14.6719 131.229 14.6602 131.58 14.6602C132.424 14.8711 132.975 15.1875 133.232 15.6094C133.514 16.0312 133.596 16.5234 133.479 17.0859C133.385 17.625 133.162 18.2227 132.811 18.8789C132.459 19.5352 132.084 20.2031 131.686 20.8828C131.311 21.5391 130.971 22.1836 130.666 22.8164C130.361 23.4258 130.221 23.9883 130.244 24.5039C130.244 24.7148 130.291 24.8672 130.385 24.9609C130.479 25.0547 130.596 25.125 130.736 25.1719C130.877 25.2188 131.029 25.2422 131.193 25.2422C131.357 25.2422 131.51 25.2422 131.65 25.2422C132.143 25.2422 132.611 25.1719 133.057 25.0312C133.525 24.8672 133.982 24.6914 134.428 24.5039C134.873 24.3164 135.318 24.1523 135.764 24.0117C136.232 23.8477 136.713 23.7656 137.205 23.7656C137.205 24.2109 136.982 24.6328 136.537 25.0312C136.092 25.4297 135.553 25.7812 134.92 26.0859C134.311 26.3672 133.666 26.6016 132.986 26.7891C132.307 26.9531 131.744 27.0352 131.299 27.0352Z" fill="black"/>
<path d="M135.658 24.7148C135.658 24.3867 135.693 24.1055 135.764 23.8711C135.834 23.6133 135.963 23.2852 136.15 22.8867C136.314 22.6523 136.607 22.207 137.029 21.5508C137.475 20.8945 137.932 20.2031 138.4 19.4766C138.893 18.75 139.35 18.0703 139.771 17.4375C140.217 16.7812 140.521 16.3242 140.686 16.0664C140.896 15.7617 141.061 15.5977 141.178 15.5742C141.295 15.5508 141.518 15.5391 141.846 15.5391C142.057 15.5391 142.279 15.5508 142.514 15.5742C142.771 15.5977 142.936 15.7617 143.006 16.0664C142.678 16.8633 142.232 17.625 141.67 18.3516C141.131 19.0547 140.592 19.7578 140.053 20.4609C139.537 21.1641 139.08 21.8906 138.682 22.6406C138.283 23.3672 138.084 24.1523 138.084 24.9961C138.178 24.9961 138.318 25.0078 138.506 25.0312C138.717 25.0547 138.939 25.0781 139.174 25.1016C139.408 25.125 139.619 25.1484 139.807 25.1719C140.018 25.1953 140.17 25.1953 140.264 25.1719C140.404 25.1484 140.639 25.1016 140.967 25.0312C141.318 24.9375 141.682 24.8438 142.057 24.75C142.455 24.6562 142.83 24.5625 143.182 24.4688C143.533 24.375 143.779 24.3047 143.92 24.2578C143.92 24.3047 143.92 24.3867 143.92 24.5039C143.943 24.5977 143.955 24.668 143.955 24.7148C143.955 25.1836 143.732 25.5703 143.287 25.875C142.865 26.1797 142.361 26.4258 141.775 26.6133C141.213 26.7773 140.627 26.8945 140.018 26.9648C139.432 27.0117 138.975 27.0352 138.646 27.0352C138.295 27.0352 137.932 27 137.557 26.9297C137.205 26.8359 136.889 26.6953 136.607 26.5078C136.326 26.3203 136.092 26.0859 135.904 25.8047C135.74 25.5 135.658 25.1367 135.658 24.7148ZM145.889 4.11328C146.193 4.11328 146.475 4.125 146.732 4.14844C146.99 4.17188 147.213 4.23047 147.4 4.32422C147.588 4.41797 147.74 4.55859 147.857 4.74609C147.975 4.93359 148.033 5.19141 148.033 5.51953C148.033 5.66016 148.033 5.8125 148.033 5.97656C148.033 6.14062 148.01 6.30469 147.963 6.46875C147.939 6.60938 147.881 6.73828 147.787 6.85547C147.693 6.94922 147.541 6.99609 147.33 6.99609C147.002 6.99609 146.732 6.87891 146.521 6.64453C146.334 6.41016 146.193 6.14062 146.1 5.83594C146.006 5.50781 145.947 5.17969 145.924 4.85156C145.9 4.52344 145.889 4.27734 145.889 4.11328Z" fill="black"/>
<path d="M143.99 23.8008C143.99 23.4961 144.061 23.1562 144.201 22.7812C144.365 22.3828 144.611 22.125 144.939 22.0078C144.986 21.9844 145.045 21.9727 145.115 21.9727C145.209 21.9492 145.291 21.9258 145.361 21.9023C145.455 21.8789 145.537 21.8672 145.607 21.8672V23.8008C145.748 23.6602 145.959 23.4023 146.24 23.0273C146.545 22.6523 146.85 22.2539 147.154 21.832C147.482 21.3867 147.775 20.9648 148.033 20.5664C148.314 20.168 148.502 19.875 148.596 19.6875L156.787 3.72656C156.787 3.72656 156.846 3.65625 156.963 3.51562C157.104 3.375 157.256 3.28125 157.42 3.23438C157.607 3.16406 157.807 3.1875 158.018 3.30469C158.229 3.42188 158.428 3.72656 158.615 4.21875L153.623 14.2734V14.6953C154.279 14.7891 154.889 14.9297 155.451 15.1172C156.014 15.2812 156.494 15.5273 156.893 15.8555C157.314 16.1836 157.643 16.5938 157.877 17.0859C158.111 17.5547 158.229 18.1289 158.229 18.8086C158.229 19.957 157.924 21.0352 157.314 22.043C156.729 23.0273 155.967 23.8945 155.029 24.6445C154.092 25.3711 153.049 25.957 151.9 26.4023C150.775 26.8242 149.686 27.0352 148.631 27.0352C148.162 27.0352 147.658 26.9766 147.119 26.8594C146.58 26.7188 146.076 26.5195 145.607 26.2617C145.162 25.9805 144.775 25.6406 144.447 25.2422C144.143 24.8203 143.99 24.3398 143.99 23.8008ZM154.01 16.9102C153.682 16.9102 153.318 17.0625 152.92 17.3672C152.545 17.6719 152.17 18.0703 151.795 18.5625C151.42 19.0312 151.057 19.5703 150.705 20.1797C150.354 20.7656 150.037 21.3516 149.756 21.9375C149.498 22.5234 149.287 23.0742 149.123 23.5898C148.959 24.1055 148.877 24.5156 148.877 24.8203C149.533 24.8203 150.271 24.668 151.092 24.3633C151.912 24.0586 152.674 23.6602 153.377 23.168C154.104 22.6523 154.701 22.0664 155.17 21.4102C155.662 20.7305 155.908 20.0273 155.908 19.3008C155.908 18.668 155.779 18.1172 155.521 17.6484C155.264 17.1562 154.76 16.9102 154.01 16.9102Z" fill="black"/>
<path d="M160.162 24.7148C160.373 23.3789 160.771 22.1484 161.357 21.0234C161.943 19.8984 162.611 18.9258 163.361 18.1055C164.135 17.2617 164.967 16.5703 165.857 16.0312C166.748 15.4922 167.615 15.1523 168.459 15.0117C169.303 14.8477 170.076 14.8828 170.779 15.1172C171.506 15.3516 172.092 15.8203 172.537 16.5234C172.537 17.0625 172.408 17.5781 172.15 18.0703C171.916 18.5625 171.646 19.0547 171.342 19.5469C171.061 20.0391 170.791 20.543 170.533 21.0586C170.299 21.5742 170.182 22.125 170.182 22.7109C170.182 23.3203 170.311 23.8125 170.568 24.1875C170.85 24.5391 171.33 24.7148 172.01 24.7148C172.572 24.7148 173.111 24.6328 173.627 24.4688C174.166 24.3047 174.705 24.2227 175.244 24.2227C175.338 24.2227 175.49 24.2344 175.701 24.2578C175.936 24.2578 176.088 24.2578 176.158 24.2578C175.877 24.6562 175.514 24.9961 175.068 25.2773C174.623 25.5586 174.154 25.8047 173.662 26.0156C173.17 26.2031 172.654 26.3438 172.115 26.4375C171.6 26.5312 171.119 26.5781 170.674 26.5781C170.252 26.5781 169.877 26.4844 169.549 26.2969C169.221 26.1094 168.939 25.8633 168.705 25.5586C168.471 25.2539 168.283 24.9141 168.143 24.5391C168.025 24.1406 167.967 23.7539 167.967 23.3789C167.615 23.7773 167.229 24.1992 166.807 24.6445C166.408 25.0664 165.975 25.4531 165.506 25.8047C165.061 26.1562 164.568 26.4492 164.029 26.6836C163.514 26.918 162.975 27.0352 162.412 27.0352C161.803 27.0352 161.275 26.8125 160.83 26.3672C160.385 25.8984 160.162 25.3477 160.162 24.7148ZM162.482 23.625C162.482 23.8125 162.482 24.0234 162.482 24.2578C162.506 24.4922 162.658 24.6445 162.939 24.7148C163.525 24.5742 164.193 24.2695 164.943 23.8008C165.693 23.3086 166.396 22.7461 167.053 22.1133C167.709 21.457 168.26 20.7656 168.705 20.0391C169.15 19.2891 169.373 18.5742 169.373 17.8945C169.373 17.8477 169.361 17.7773 169.338 17.6836C169.338 17.5664 169.338 17.4844 169.338 17.4375C168.541 17.4375 167.732 17.6016 166.912 17.9297C166.092 18.2578 165.354 18.7148 164.697 19.3008C164.041 19.8633 163.502 20.5195 163.08 21.2695C162.682 22.0195 162.482 22.8047 162.482 23.625Z" fill="black"/>
<path d="M174.928 23.5898C174.928 22.9102 175.057 22.2305 175.314 21.5508C175.572 20.8711 175.877 20.2031 176.229 19.5469C176.58 18.8672 176.932 18.1992 177.283 17.543C177.658 16.8867 177.939 16.2422 178.127 15.6094C177.682 15.8672 177.295 16.0195 176.967 16.0664C176.662 16.0898 176.287 16.1016 175.842 16.1016C175.795 16.1016 175.643 16.1016 175.385 16.1016C175.15 16.0781 174.998 16.0664 174.928 16.0664C175.068 15.5508 175.326 15.0938 175.701 14.6953C176.076 14.2734 176.498 13.9219 176.967 13.6406C177.459 13.3359 177.963 13.0898 178.479 12.9023C179.018 12.6914 179.498 12.5273 179.92 12.4102C180.623 11.3086 181.197 10.207 181.643 9.10547C182.088 7.98047 182.533 6.89062 182.979 5.83594C183.447 4.75781 183.986 3.73828 184.596 2.77734C185.229 1.79297 186.072 0.890625 187.127 0.0703125L187.303 1.40625L182.908 11.707C183.166 11.6367 183.482 11.5664 183.857 11.4961C184.232 11.4258 184.607 11.3555 184.982 11.2852C185.381 11.2148 185.756 11.1562 186.107 11.1094C186.482 11.0391 186.799 10.9688 187.057 10.8984C187.08 10.8984 187.15 10.8984 187.268 10.8984C187.385 10.875 187.479 10.8633 187.549 10.8633C187.877 10.8633 188.146 10.9219 188.357 11.0391C188.568 11.1562 188.744 11.4141 188.885 11.8125C187.291 12.2812 185.85 12.7734 184.561 13.2891C183.271 13.8047 182.146 14.4844 181.186 15.3281C180.248 16.1484 179.475 17.2031 178.865 18.4922C178.279 19.7578 177.869 21.3867 177.635 23.3789C177.635 23.8008 177.658 24.1875 177.705 24.5391C177.752 24.8906 178.045 25.1016 178.584 25.1719C179.123 25.1719 179.627 25.0664 180.096 24.8555C180.564 24.6445 181.021 24.4219 181.467 24.1875C181.912 23.9297 182.357 23.6953 182.803 23.4844C183.271 23.2734 183.775 23.168 184.314 23.168C184.314 23.7305 184.068 24.2461 183.576 24.7148C183.084 25.1836 182.486 25.5938 181.783 25.9453C181.104 26.2969 180.4 26.5664 179.674 26.7539C178.947 26.9414 178.35 27.0352 177.881 27.0352C177.412 27.0352 176.99 26.9414 176.615 26.7539C176.24 26.5664 175.924 26.3203 175.666 26.0156C175.432 25.6875 175.244 25.3125 175.104 24.8906C174.986 24.4688 174.928 24.0352 174.928 23.5898Z" fill="black"/>
<path d="M184.631 24.7148C184.842 23.3789 185.24 22.1484 185.826 21.0234C186.412 19.8984 187.08 18.9258 187.83 18.1055C188.604 17.2617 189.436 16.5703 190.326 16.0312C191.217 15.4922 192.084 15.1523 192.928 15.0117C193.771 14.8477 194.545 14.8828 195.248 15.1172C195.975 15.3516 196.561 15.8203 197.006 16.5234C197.006 17.0625 196.877 17.5781 196.619 18.0703C196.385 18.5625 196.115 19.0547 195.811 19.5469C195.529 20.0391 195.26 20.543 195.002 21.0586C194.768 21.5742 194.65 22.125 194.65 22.7109C194.65 23.3203 194.779 23.8125 195.037 24.1875C195.318 24.5391 195.799 24.7148 196.479 24.7148C197.041 24.7148 197.58 24.6328 198.096 24.4688C198.635 24.3047 199.174 24.2227 199.713 24.2227C199.807 24.2227 199.959 24.2344 200.17 24.2578C200.404 24.2578 200.557 24.2578 200.627 24.2578C200.346 24.6562 199.982 24.9961 199.537 25.2773C199.092 25.5586 198.623 25.8047 198.131 26.0156C197.639 26.2031 197.123 26.3438 196.584 26.4375C196.068 26.5312 195.588 26.5781 195.143 26.5781C194.721 26.5781 194.346 26.4844 194.018 26.2969C193.689 26.1094 193.408 25.8633 193.174 25.5586C192.939 25.2539 192.752 24.9141 192.611 24.5391C192.494 24.1406 192.436 23.7539 192.436 23.3789C192.084 23.7773 191.697 24.1992 191.275 24.6445C190.877 25.0664 190.443 25.4531 189.975 25.8047C189.529 26.1562 189.037 26.4492 188.498 26.6836C187.982 26.918 187.443 27.0352 186.881 27.0352C186.271 27.0352 185.744 26.8125 185.299 26.3672C184.854 25.8984 184.631 25.3477 184.631 24.7148ZM186.951 23.625C186.951 23.8125 186.951 24.0234 186.951 24.2578C186.975 24.4922 187.127 24.6445 187.408 24.7148C187.994 24.5742 188.662 24.2695 189.412 23.8008C190.162 23.3086 190.865 22.7461 191.521 22.1133C192.178 21.457 192.729 20.7656 193.174 20.0391C193.619 19.2891 193.842 18.5742 193.842 17.8945C193.842 17.8477 193.83 17.7773 193.807 17.6836C193.807 17.5664 193.807 17.4844 193.807 17.4375C193.01 17.4375 192.201 17.6016 191.381 17.9297C190.561 18.2578 189.822 18.7148 189.166 19.3008C188.51 19.8633 187.971 20.5195 187.549 21.2695C187.15 22.0195 186.951 22.8047 186.951 23.625Z" fill="black"/>
</svg>
